<?xml version="1.0" encoding="utf-8"?>
<!-- Generator: Adobe Illustrator 24.3.0, SVG Export Plug-In . SVG Version: 6.00 Build 0)  -->
<svg version="1.1" id="Layer_1" xmlns="http://www.w3.org/2000/svg" xmlns:xlink="http://www.w3.org/1999/xlink" x="0px" y="0px"
	 viewBox="0 0 600 300" style="enable-background:new 0 0 600 300;" xml:space="preserve">
<style type="text/css">
	.st0{fill:#CCCCCC;}
</style>
<g>
	<rect class="st0" width="15" height="15"/>
</g>
<g>
	<rect y="30" class="st0" width="15" height="15"/>
</g>
<g>
	<rect y="60" class="st0" width="15" height="15"/>
</g>
<g>
	<rect y="90" class="st0" width="15" height="15"/>
</g>
<g>
	<rect y="120" class="st0" width="15" height="15"/>
</g>
<g>
	<rect y="150" class="st0" width="15" height="15"/>
</g>
<g>
	<rect y="180" class="st0" width="15" height="15"/>
</g>
<g>
	<rect y="210" class="st0" width="15" height="15"/>
</g>
<g>
	<rect y="240" class="st0" width="15" height="15"/>
</g>
<g>
	<rect y="270" class="st0" width="15" height="15"/>
</g>
<g>
	<rect x="15" y="15" class="st0" width="15" height="15"/>
</g>
<g>
	<rect x="15" y="45" class="st0" width="15" height="15"/>
</g>
<g>
	<rect x="15" y="75" class="st0" width="15" height="15"/>
</g>
<g>
	<rect x="15" y="105" class="st0" width="15" height="15"/>
</g>
<g>
	<rect x="15" y="135" class="st0" width="15" height="15"/>
</g>
<g>
	<rect x="15" y="165" class="st0" width="15" height="15"/>
</g>
<g>
	<rect x="15" y="195" class="st0" width="15" height="15"/>
</g>
<g>
	<rect x="15" y="225" class="st0" width="15" height="15"/>
</g>
<g>
	<rect x="15" y="255" class="st0" width="15" height="15"/>
</g>
<g>
	<rect x="15" y="285" class="st0" width="15" height="15"/>
</g>
<g>
	<rect x="30" class="st0" width="15" height="15"/>
</g>
<g>
	<rect x="30" y="30" class="st0" width="15" height="15"/>
</g>
<g>
	<rect x="30" y="60" class="st0" width="15" height="15"/>
</g>
<g>
	<rect x="30" y="90" class="st0" width="15" height="15"/>
</g>
<g>
	<rect x="30" y="120" class="st0" width="15" height="15"/>
</g>
<g>
	<rect x="30" y="150" class="st0" width="15" height="15"/>
</g>
<g>
	<rect x="30" y="180" class="st0" width="15" height="15"/>
</g>
<g>
	<rect x="30" y="210" class="st0" width="15" height="15"/>
</g>
<g>
	<rect x="30" y="240" class="st0" width="15" height="15"/>
</g>
<g>
	<rect x="30" y="270" class="st0" width="15" height="15"/>
</g>
<g>
	<rect x="45" y="15" class="st0" width="15" height="15"/>
</g>
<g>
	<rect x="45" y="45" class="st0" width="15" height="15"/>
</g>
<g>
	<rect x="45" y="75" class="st0" width="15" height="15"/>
</g>
<g>
	<rect x="45" y="105" class="st0" width="15" height="15"/>
</g>
<g>
	<rect x="45" y="135" class="st0" width="15" height="15"/>
</g>
<g>
	<rect x="45" y="165" class="st0" width="15" height="15"/>
</g>
<g>
	<rect x="45" y="195" class="st0" width="15" height="15"/>
</g>
<g>
	<rect x="45" y="225" class="st0" width="15" height="15"/>
</g>
<g>
	<rect x="45" y="255" class="st0" width="15" height="15"/>
</g>
<g>
	<rect x="45" y="285" class="st0" width="15" height="15"/>
</g>
<g>
	<rect x="60" class="st0" width="15" height="15"/>
</g>
<g>
	<rect x="60" y="30" class="st0" width="15" height="15"/>
</g>
<g>
	<rect x="60" y="60" class="st0" width="15" height="15"/>
</g>
<g>
	<rect x="60" y="90" class="st0" width="15" height="15"/>
</g>
<g>
	<rect x="60" y="120" class="st0" width="15" height="15"/>
</g>
<g>
	<rect x="60" y="150" class="st0" width="15" height="15"/>
</g>
<g>
	<rect x="60" y="180" class="st0" width="15" height="15"/>
</g>
<g>
	<rect x="60" y="210" class="st0" width="15" height="15"/>
</g>
<g>
	<rect x="60" y="240" class="st0" width="15" height="15"/>
</g>
<g>
	<rect x="60" y="270" class="st0" width="15" height="15"/>
</g>
<g>
	<rect x="75" y="15" class="st0" width="15" height="15"/>
</g>
<g>
	<rect x="75" y="45" class="st0" width="15" height="15"/>
</g>
<g>
	<rect x="75" y="75" class="st0" width="15" height="15"/>
</g>
<g>
	<rect x="75" y="105" class="st0" width="15" height="15"/>
</g>
<g>
	<rect x="75" y="135" class="st0" width="15" height="15"/>
</g>
<g>
	<rect x="75" y="165" class="st0" width="15" height="15"/>
</g>
<g>
	<rect x="75" y="195" class="st0" width="15" height="15"/>
</g>
<g>
	<rect x="75" y="225" class="st0" width="15" height="15"/>
</g>
<g>
	<rect x="75" y="255" class="st0" width="15" height="15"/>
</g>
<g>
	<rect x="75" y="285" class="st0" width="15" height="15"/>
</g>
<g>
	<rect x="90" class="st0" width="15" height="15"/>
</g>
<g>
	<rect x="90" y="30" class="st0" width="15" height="15"/>
</g>
<g>
	<rect x="90" y="60" class="st0" width="15" height="15"/>
</g>
<g>
	<rect x="90" y="90" class="st0" width="15" height="15"/>
</g>
<g>
	<rect x="90" y="120" class="st0" width="15" height="15"/>
</g>
<g>
	<rect x="90" y="150" class="st0" width="15" height="15"/>
</g>
<g>
	<rect x="90" y="180" class="st0" width="15" height="15"/>
</g>
<g>
	<rect x="90" y="210" class="st0" width="15" height="15"/>
</g>
<g>
	<rect x="90" y="240" class="st0" width="15" height="15"/>
</g>
<g>
	<rect x="90" y="270" class="st0" width="15" height="15"/>
</g>
<g>
	<rect x="105" y="15" class="st0" width="15" height="15"/>
</g>
<g>
	<rect x="105" y="45" class="st0" width="15" height="15"/>
</g>
<g>
	<rect x="105" y="75" class="st0" width="15" height="15"/>
</g>
<g>
	<rect x="105" y="105" class="st0" width="15" height="15"/>
</g>
<g>
	<rect x="105" y="135" class="st0" width="15" height="15"/>
</g>
<g>
	<rect x="105" y="165" class="st0" width="15" height="15"/>
</g>
<g>
	<rect x="105" y="195" class="st0" width="15" height="15"/>
</g>
<g>
	<rect x="105" y="225" class="st0" width="15" height="15"/>
</g>
<g>
	<rect x="105" y="255" class="st0" width="15" height="15"/>
</g>
<g>
	<rect x="105" y="285" class="st0" width="15" height="15"/>
</g>
<g>
	<rect x="120" class="st0" width="15" height="15"/>
</g>
<g>
	<rect x="120" y="30" class="st0" width="15" height="15"/>
</g>
<g>
	<rect x="120" y="60" class="st0" width="15" height="15"/>
</g>
<g>
	<rect x="120" y="90" class="st0" width="15" height="15"/>
</g>
<g>
	<rect x="120" y="120" class="st0" width="15" height="15"/>
</g>
<g>
	<rect x="120" y="150" class="st0" width="15" height="15"/>
</g>
<g>
	<rect x="120" y="180" class="st0" width="15" height="15"/>
</g>
<g>
	<rect x="120" y="210" class="st0" width="15" height="15"/>
</g>
<g>
	<rect x="120" y="240" class="st0" width="15" height="15"/>
</g>
<g>
	<rect x="120" y="270" class="st0" width="15" height="15"/>
</g>
<g>
	<rect x="135" y="15" class="st0" width="15" height="15"/>
</g>
<g>
	<rect x="135" y="45" class="st0" width="15" height="15"/>
</g>
<g>
	<rect x="135" y="75" class="st0" width="15" height="15"/>
</g>
<g>
	<rect x="135" y="105" class="st0" width="15" height="15"/>
</g>
<g>
	<rect x="135" y="135" class="st0" width="15" height="15"/>
</g>
<g>
	<rect x="135" y="165" class="st0" width="15" height="15"/>
</g>
<g>
	<rect x="135" y="195" class="st0" width="15" height="15"/>
</g>
<g>
	<rect x="135" y="225" class="st0" width="15" height="15"/>
</g>
<g>
	<rect x="135" y="255" class="st0" width="15" height="15"/>
</g>
<g>
	<rect x="135" y="285" class="st0" width="15" height="15"/>
</g>
<g>
	<rect x="150" class="st0" width="15" height="15"/>
</g>
<g>
	<rect x="150" y="30" class="st0" width="15" height="15"/>
</g>
<g>
	<rect x="150" y="60" class="st0" width="15" height="15"/>
</g>
<g>
	<rect x="150" y="90" class="st0" width="15" height="15"/>
</g>
<g>
	<rect x="150" y="120" class="st0" width="15" height="15"/>
</g>
<g>
	<rect x="150" y="150" class="st0" width="15" height="15"/>
</g>
<g>
	<rect x="150" y="180" class="st0" width="15" height="15"/>
</g>
<g>
	<rect x="150" y="210" class="st0" width="15" height="15"/>
</g>
<g>
	<rect x="150" y="240" class="st0" width="15" height="15"/>
</g>
<g>
	<rect x="150" y="270" class="st0" width="15" height="15"/>
</g>
<g>
	<rect x="165" y="15" class="st0" width="15" height="15"/>
</g>
<g>
	<rect x="165" y="45" class="st0" width="15" height="15"/>
</g>
<g>
	<rect x="165" y="75" class="st0" width="15" height="15"/>
</g>
<g>
	<rect x="165" y="105" class="st0" width="15" height="15"/>
</g>
<g>
	<rect x="165" y="135" class="st0" width="15" height="15"/>
</g>
<g>
	<rect x="165" y="165" class="st0" width="15" height="15"/>
</g>
<g>
	<rect x="165" y="195" class="st0" width="15" height="15"/>
</g>
<g>
	<rect x="165" y="225" class="st0" width="15" height="15"/>
</g>
<g>
	<rect x="165" y="255" class="st0" width="15" height="15"/>
</g>
<g>
	<rect x="165" y="285" class="st0" width="15" height="15"/>
</g>
<g>
	<rect x="180" class="st0" width="15" height="15"/>
</g>
<g>
	<rect x="180" y="30" class="st0" width="15" height="15"/>
</g>
<g>
	<rect x="180" y="60" class="st0" width="15" height="15"/>
</g>
<g>
	<rect x="180" y="90" class="st0" width="15" height="15"/>
</g>
<g>
	<rect x="180" y="120" class="st0" width="15" height="15"/>
</g>
<g>
	<rect x="180" y="150" class="st0" width="15" height="15"/>
</g>
<g>
	<rect x="180" y="180" class="st0" width="15" height="15"/>
</g>
<g>
	<rect x="180" y="210" class="st0" width="15" height="15"/>
</g>
<g>
	<rect x="180" y="240" class="st0" width="15" height="15"/>
</g>
<g>
	<rect x="180" y="270" class="st0" width="15" height="15"/>
</g>
<g>
	<rect x="195" y="15" class="st0" width="15" height="15"/>
</g>
<g>
	<rect x="195" y="45" class="st0" width="15" height="15"/>
</g>
<g>
	<rect x="195" y="75" class="st0" width="15" height="15"/>
</g>
<g>
	<rect x="195" y="105" class="st0" width="15" height="15"/>
</g>
<g>
	<rect x="195" y="135" class="st0" width="15" height="15"/>
</g>
<g>
	<rect x="195" y="165" class="st0" width="15" height="15"/>
</g>
<g>
	<rect x="195" y="195" class="st0" width="15" height="15"/>
</g>
<g>
	<rect x="195" y="225" class="st0" width="15" height="15"/>
</g>
<g>
	<rect x="195" y="255" class="st0" width="15" height="15"/>
</g>
<g>
	<rect x="195" y="285" class="st0" width="15" height="15"/>
</g>
<g>
	<rect x="210" class="st0" width="15" height="15"/>
</g>
<g>
	<rect x="210" y="30" class="st0" width="15" height="15"/>
</g>
<g>
	<rect x="210" y="60" class="st0" width="15" height="15"/>
</g>
<g>
	<rect x="210" y="90" class="st0" width="15" height="15"/>
</g>
<g>
	<rect x="210" y="120" class="st0" width="15" height="15"/>
</g>
<g>
	<rect x="210" y="150" class="st0" width="15" height="15"/>
</g>
<g>
	<rect x="210" y="180" class="st0" width="15" height="15"/>
</g>
<g>
	<rect x="210" y="210" class="st0" width="15" height="15"/>
</g>
<g>
	<rect x="210" y="240" class="st0" width="15" height="15"/>
</g>
<g>
	<rect x="210" y="270" class="st0" width="15" height="15"/>
</g>
<g>
	<rect x="225" y="15" class="st0" width="15" height="15"/>
</g>
<g>
	<rect x="225" y="45" class="st0" width="15" height="15"/>
</g>
<g>
	<rect x="225" y="75" class="st0" width="15" height="15"/>
</g>
<g>
	<rect x="225" y="105" class="st0" width="15" height="15"/>
</g>
<g>
	<rect x="225" y="135" class="st0" width="15" height="15"/>
</g>
<g>
	<rect x="225" y="165" class="st0" width="15" height="15"/>
</g>
<g>
	<rect x="225" y="195" class="st0" width="15" height="15"/>
</g>
<g>
	<rect x="225" y="225" class="st0" width="15" height="15"/>
</g>
<g>
	<rect x="225" y="255" class="st0" width="15" height="15"/>
</g>
<g>
	<rect x="225" y="285" class="st0" width="15" height="15"/>
</g>
<g>
	<rect x="240" class="st0" width="15" height="15"/>
</g>
<g>
	<rect x="240" y="30" class="st0" width="15" height="15"/>
</g>
<g>
	<rect x="240" y="60" class="st0" width="15" height="15"/>
</g>
<g>
	<rect x="240" y="90" class="st0" width="15" height="15"/>
</g>
<g>
	<rect x="240" y="120" class="st0" width="15" height="15"/>
</g>
<g>
	<rect x="240" y="150" class="st0" width="15" height="15"/>
</g>
<g>
	<rect x="240" y="180" class="st0" width="15" height="15"/>
</g>
<g>
	<rect x="240" y="210" class="st0" width="15" height="15"/>
</g>
<g>
	<rect x="240" y="240" class="st0" width="15" height="15"/>
</g>
<g>
	<rect x="240" y="270" class="st0" width="15" height="15"/>
</g>
<g>
	<rect x="255" y="15" class="st0" width="15" height="15"/>
</g>
<g>
	<rect x="255" y="45" class="st0" width="15" height="15"/>
</g>
<g>
	<rect x="255" y="75" class="st0" width="15" height="15"/>
</g>
<g>
	<rect x="255" y="105" class="st0" width="15" height="15"/>
</g>
<g>
	<rect x="255" y="135" class="st0" width="15" height="15"/>
</g>
<g>
	<rect x="255" y="165" class="st0" width="15" height="15"/>
</g>
<g>
	<rect x="255" y="195" class="st0" width="15" height="15"/>
</g>
<g>
	<rect x="255" y="225" class="st0" width="15" height="15"/>
</g>
<g>
	<rect x="255" y="255" class="st0" width="15" height="15"/>
</g>
<g>
	<rect x="255" y="285" class="st0" width="15" height="15"/>
</g>
<g>
	<rect x="270" class="st0" width="15" height="15"/>
</g>
<g>
	<rect x="270" y="30" class="st0" width="15" height="15"/>
</g>
<g>
	<rect x="270" y="60" class="st0" width="15" height="15"/>
</g>
<g>
	<rect x="270" y="90" class="st0" width="15" height="15"/>
</g>
<g>
	<rect x="270" y="120" class="st0" width="15" height="15"/>
</g>
<g>
	<rect x="270" y="150" class="st0" width="15" height="15"/>
</g>
<g>
	<rect x="270" y="180" class="st0" width="15" height="15"/>
</g>
<g>
	<rect x="270" y="210" class="st0" width="15" height="15"/>
</g>
<g>
	<rect x="270" y="240" class="st0" width="15" height="15"/>
</g>
<g>
	<rect x="270" y="270" class="st0" width="15" height="15"/>
</g>
<g>
	<rect x="285" y="15" class="st0" width="15" height="15"/>
</g>
<g>
	<rect x="285" y="45" class="st0" width="15" height="15"/>
</g>
<g>
	<rect x="285" y="75" class="st0" width="15" height="15"/>
</g>
<g>
	<rect x="285" y="105" class="st0" width="15" height="15"/>
</g>
<g>
	<rect x="285" y="135" class="st0" width="15" height="15"/>
</g>
<g>
	<rect x="285" y="165" class="st0" width="15" height="15"/>
</g>
<g>
	<rect x="285" y="195" class="st0" width="15" height="15"/>
</g>
<g>
	<rect x="285" y="225" class="st0" width="15" height="15"/>
</g>
<g>
	<rect x="285" y="255" class="st0" width="15" height="15"/>
</g>
<g>
	<rect x="285" y="285" class="st0" width="15" height="15"/>
</g>
<g>
	<rect x="300" class="st0" width="15" height="15"/>
</g>
<g>
	<rect x="300" y="30" class="st0" width="15" height="15"/>
</g>
<g>
	<rect x="300" y="60" class="st0" width="15" height="15"/>
</g>
<g>
	<rect x="300" y="90" class="st0" width="15" height="15"/>
</g>
<g>
	<rect x="300" y="120" class="st0" width="15" height="15"/>
</g>
<g>
	<rect x="300" y="150" class="st0" width="15" height="15"/>
</g>
<g>
	<rect x="300" y="180" class="st0" width="15" height="15"/>
</g>
<g>
	<rect x="300" y="210" class="st0" width="15" height="15"/>
</g>
<g>
	<rect x="300" y="240" class="st0" width="15" height="15"/>
</g>
<g>
	<rect x="300" y="270" class="st0" width="15" height="15"/>
</g>
<g>
	<rect x="315" y="15" class="st0" width="15" height="15"/>
</g>
<g>
	<rect x="315" y="45" class="st0" width="15" height="15"/>
</g>
<g>
	<rect x="315" y="75" class="st0" width="15" height="15"/>
</g>
<g>
	<rect x="315" y="105" class="st0" width="15" height="15"/>
</g>
<g>
	<rect x="315" y="135" class="st0" width="15" height="15"/>
</g>
<g>
	<rect x="315" y="165" class="st0" width="15" height="15"/>
</g>
<g>
	<rect x="315" y="195" class="st0" width="15" height="15"/>
</g>
<g>
	<rect x="315" y="225" class="st0" width="15" height="15"/>
</g>
<g>
	<rect x="315" y="255" class="st0" width="15" height="15"/>
</g>
<g>
	<rect x="315" y="285" class="st0" width="15" height="15"/>
</g>
<g>
	<rect x="330" class="st0" width="15" height="15"/>
</g>
<g>
	<rect x="330" y="30" class="st0" width="15" height="15"/>
</g>
<g>
	<rect x="330" y="60" class="st0" width="15" height="15"/>
</g>
<g>
	<rect x="330" y="90" class="st0" width="15" height="15"/>
</g>
<g>
	<rect x="330" y="120" class="st0" width="15" height="15"/>
</g>
<g>
	<rect x="330" y="150" class="st0" width="15" height="15"/>
</g>
<g>
	<rect x="330" y="180" class="st0" width="15" height="15"/>
</g>
<g>
	<rect x="330" y="210" class="st0" width="15" height="15"/>
</g>
<g>
	<rect x="330" y="240" class="st0" width="15" height="15"/>
</g>
<g>
	<rect x="330" y="270" class="st0" width="15" height="15"/>
</g>
<g>
	<rect x="345" y="15" class="st0" width="15" height="15"/>
</g>
<g>
	<rect x="345" y="45" class="st0" width="15" height="15"/>
</g>
<g>
	<rect x="345" y="75" class="st0" width="15" height="15"/>
</g>
<g>
	<rect x="345" y="105" class="st0" width="15" height="15"/>
</g>
<g>
	<rect x="345" y="135" class="st0" width="15" height="15"/>
</g>
<g>
	<rect x="345" y="165" class="st0" width="15" height="15"/>
</g>
<g>
	<rect x="345" y="195" class="st0" width="15" height="15"/>
</g>
<g>
	<rect x="345" y="225" class="st0" width="15" height="15"/>
</g>
<g>
	<rect x="345" y="255" class="st0" width="15" height="15"/>
</g>
<g>
	<rect x="345" y="285" class="st0" width="15" height="15"/>
</g>
<g>
	<rect x="360" class="st0" width="15" height="15"/>
</g>
<g>
	<rect x="360" y="30" class="st0" width="15" height="15"/>
</g>
<g>
	<rect x="360" y="60" class="st0" width="15" height="15"/>
</g>
<g>
	<rect x="360" y="90" class="st0" width="15" height="15"/>
</g>
<g>
	<rect x="360" y="120" class="st0" width="15" height="15"/>
</g>
<g>
	<rect x="360" y="150" class="st0" width="15" height="15"/>
</g>
<g>
	<rect x="360" y="180" class="st0" width="15" height="15"/>
</g>
<g>
	<rect x="360" y="210" class="st0" width="15" height="15"/>
</g>
<g>
	<rect x="360" y="240" class="st0" width="15" height="15"/>
</g>
<g>
	<rect x="360" y="270" class="st0" width="15" height="15"/>
</g>
<g>
	<rect x="375" y="15" class="st0" width="15" height="15"/>
</g>
<g>
	<rect x="375" y="45" class="st0" width="15" height="15"/>
</g>
<g>
	<rect x="375" y="75" class="st0" width="15" height="15"/>
</g>
<g>
	<rect x="375" y="105" class="st0" width="15" height="15"/>
</g>
<g>
	<rect x="375" y="135" class="st0" width="15" height="15"/>
</g>
<g>
	<rect x="375" y="165" class="st0" width="15" height="15"/>
</g>
<g>
	<rect x="375" y="195" class="st0" width="15" height="15"/>
</g>
<g>
	<rect x="375" y="225" class="st0" width="15" height="15"/>
</g>
<g>
	<rect x="375" y="255" class="st0" width="15" height="15"/>
</g>
<g>
	<rect x="375" y="285" class="st0" width="15" height="15"/>
</g>
<g>
	<rect x="390" class="st0" width="15" height="15"/>
</g>
<g>
	<rect x="390" y="30" class="st0" width="15" height="15"/>
</g>
<g>
	<rect x="390" y="60" class="st0" width="15" height="15"/>
</g>
<g>
	<rect x="390" y="90" class="st0" width="15" height="15"/>
</g>
<g>
	<rect x="390" y="120" class="st0" width="15" height="15"/>
</g>
<g>
	<rect x="390" y="150" class="st0" width="15" height="15"/>
</g>
<g>
	<rect x="390" y="180" class="st0" width="15" height="15"/>
</g>
<g>
	<rect x="390" y="210" class="st0" width="15" height="15"/>
</g>
<g>
	<rect x="390" y="240" class="st0" width="15" height="15"/>
</g>
<g>
	<rect x="390" y="270" class="st0" width="15" height="15"/>
</g>
<g>
	<rect x="405" y="15" class="st0" width="15" height="15"/>
</g>
<g>
	<rect x="405" y="45" class="st0" width="15" height="15"/>
</g>
<g>
	<rect x="405" y="75" class="st0" width="15" height="15"/>
</g>
<g>
	<rect x="405" y="105" class="st0" width="15" height="15"/>
</g>
<g>
	<rect x="405" y="135" class="st0" width="15" height="15"/>
</g>
<g>
	<rect x="405" y="165" class="st0" width="15" height="15"/>
</g>
<g>
	<rect x="405" y="195" class="st0" width="15" height="15"/>
</g>
<g>
	<rect x="405" y="225" class="st0" width="15" height="15"/>
</g>
<g>
	<rect x="405" y="255" class="st0" width="15" height="15"/>
</g>
<g>
	<rect x="405" y="285" class="st0" width="15" height="15"/>
</g>
<g>
	<rect x="420" class="st0" width="15" height="15"/>
</g>
<g>
	<rect x="420" y="30" class="st0" width="15" height="15"/>
</g>
<g>
	<rect x="420" y="60" class="st0" width="15" height="15"/>
</g>
<g>
	<rect x="420" y="90" class="st0" width="15" height="15"/>
</g>
<g>
	<rect x="420" y="120" class="st0" width="15" height="15"/>
</g>
<g>
	<rect x="420" y="150" class="st0" width="15" height="15"/>
</g>
<g>
	<rect x="420" y="180" class="st0" width="15" height="15"/>
</g>
<g>
	<rect x="420" y="210" class="st0" width="15" height="15"/>
</g>
<g>
	<rect x="420" y="240" class="st0" width="15" height="15"/>
</g>
<g>
	<rect x="420" y="270" class="st0" width="15" height="15"/>
</g>
<g>
	<rect x="435" y="15" class="st0" width="15" height="15"/>
</g>
<g>
	<rect x="435" y="45" class="st0" width="15" height="15"/>
</g>
<g>
	<rect x="435" y="75" class="st0" width="15" height="15"/>
</g>
<g>
	<rect x="435" y="105" class="st0" width="15" height="15"/>
</g>
<g>
	<rect x="435" y="135" class="st0" width="15" height="15"/>
</g>
<g>
	<rect x="435" y="165" class="st0" width="15" height="15"/>
</g>
<g>
	<rect x="435" y="195" class="st0" width="15" height="15"/>
</g>
<g>
	<rect x="435" y="225" class="st0" width="15" height="15"/>
</g>
<g>
	<rect x="435" y="255" class="st0" width="15" height="15"/>
</g>
<g>
	<rect x="435" y="285" class="st0" width="15" height="15"/>
</g>
<g>
	<rect x="450" class="st0" width="15" height="15"/>
</g>
<g>
	<rect x="450" y="30" class="st0" width="15" height="15"/>
</g>
<g>
	<rect x="450" y="60" class="st0" width="15" height="15"/>
</g>
<g>
	<rect x="450" y="90" class="st0" width="15" height="15"/>
</g>
<g>
	<rect x="450" y="120" class="st0" width="15" height="15"/>
</g>
<g>
	<rect x="450" y="150" class="st0" width="15" height="15"/>
</g>
<g>
	<rect x="450" y="180" class="st0" width="15" height="15"/>
</g>
<g>
	<rect x="450" y="210" class="st0" width="15" height="15"/>
</g>
<g>
	<rect x="450" y="240" class="st0" width="15" height="15"/>
</g>
<g>
	<rect x="450" y="270" class="st0" width="15" height="15"/>
</g>
<g>
	<rect x="465" y="15" class="st0" width="15" height="15"/>
</g>
<g>
	<rect x="465" y="45" class="st0" width="15" height="15"/>
</g>
<g>
	<rect x="465" y="75" class="st0" width="15" height="15"/>
</g>
<g>
	<rect x="465" y="105" class="st0" width="15" height="15"/>
</g>
<g>
	<rect x="465" y="135" class="st0" width="15" height="15"/>
</g>
<g>
	<rect x="465" y="165" class="st0" width="15" height="15"/>
</g>
<g>
	<rect x="465" y="195" class="st0" width="15" height="15"/>
</g>
<g>
	<rect x="465" y="225" class="st0" width="15" height="15"/>
</g>
<g>
	<rect x="465" y="255" class="st0" width="15" height="15"/>
</g>
<g>
	<rect x="465" y="285" class="st0" width="15" height="15"/>
</g>
<g>
	<rect x="480" class="st0" width="15" height="15"/>
</g>
<g>
	<rect x="480" y="30" class="st0" width="15" height="15"/>
</g>
<g>
	<rect x="480" y="60" class="st0" width="15" height="15"/>
</g>
<g>
	<rect x="480" y="90" class="st0" width="15" height="15"/>
</g>
<g>
	<rect x="480" y="120" class="st0" width="15" height="15"/>
</g>
<g>
	<rect x="480" y="150" class="st0" width="15" height="15"/>
</g>
<g>
	<rect x="480" y="180" class="st0" width="15" height="15"/>
</g>
<g>
	<rect x="480" y="210" class="st0" width="15" height="15"/>
</g>
<g>
	<rect x="480" y="240" class="st0" width="15" height="15"/>
</g>
<g>
	<rect x="480" y="270" class="st0" width="15" height="15"/>
</g>
<g>
	<rect x="495" y="15" class="st0" width="15" height="15"/>
</g>
<g>
	<rect x="495" y="45" class="st0" width="15" height="15"/>
</g>
<g>
	<rect x="495" y="75" class="st0" width="15" height="15"/>
</g>
<g>
	<rect x="495" y="105" class="st0" width="15" height="15"/>
</g>
<g>
	<rect x="495" y="135" class="st0" width="15" height="15"/>
</g>
<g>
	<rect x="495" y="165" class="st0" width="15" height="15"/>
</g>
<g>
	<rect x="495" y="195" class="st0" width="15" height="15"/>
</g>
<g>
	<rect x="495" y="225" class="st0" width="15" height="15"/>
</g>
<g>
	<rect x="495" y="255" class="st0" width="15" height="15"/>
</g>
<g>
	<rect x="495" y="285" class="st0" width="15" height="15"/>
</g>
<g>
	<rect x="510" class="st0" width="15" height="15"/>
</g>
<g>
	<rect x="510" y="30" class="st0" width="15" height="15"/>
</g>
<g>
	<rect x="510" y="60" class="st0" width="15" height="15"/>
</g>
<g>
	<rect x="510" y="90" class="st0" width="15" height="15"/>
</g>
<g>
	<rect x="510" y="120" class="st0" width="15" height="15"/>
</g>
<g>
	<rect x="510" y="150" class="st0" width="15" height="15"/>
</g>
<g>
	<rect x="510" y="180" class="st0" width="15" height="15"/>
</g>
<g>
	<rect x="510" y="210" class="st0" width="15" height="15"/>
</g>
<g>
	<rect x="510" y="240" class="st0" width="15" height="15"/>
</g>
<g>
	<rect x="510" y="270" class="st0" width="15" height="15"/>
</g>
<g>
	<rect x="525" y="15" class="st0" width="15" height="15"/>
</g>
<g>
	<rect x="525" y="45" class="st0" width="15" height="15"/>
</g>
<g>
	<rect x="525" y="75" class="st0" width="15" height="15"/>
</g>
<g>
	<rect x="525" y="105" class="st0" width="15" height="15"/>
</g>
<g>
	<rect x="525" y="135" class="st0" width="15" height="15"/>
</g>
<g>
	<rect x="525" y="165" class="st0" width="15" height="15"/>
</g>
<g>
	<rect x="525" y="195" class="st0" width="15" height="15"/>
</g>
<g>
	<rect x="525" y="225" class="st0" width="15" height="15"/>
</g>
<g>
	<rect x="525" y="255" class="st0" width="15" height="15"/>
</g>
<g>
	<rect x="525" y="285" class="st0" width="15" height="15"/>
</g>
<g>
	<rect x="540" class="st0" width="15" height="15"/>
</g>
<g>
	<rect x="540" y="30" class="st0" width="15" height="15"/>
</g>
<g>
	<rect x="540" y="60" class="st0" width="15" height="15"/>
</g>
<g>
	<rect x="540" y="90" class="st0" width="15" height="15"/>
</g>
<g>
	<rect x="540" y="120" class="st0" width="15" height="15"/>
</g>
<g>
	<rect x="540" y="150" class="st0" width="15" height="15"/>
</g>
<g>
	<rect x="540" y="180" class="st0" width="15" height="15"/>
</g>
<g>
	<rect x="540" y="210" class="st0" width="15" height="15"/>
</g>
<g>
	<rect x="540" y="240" class="st0" width="15" height="15"/>
</g>
<g>
	<rect x="540" y="270" class="st0" width="15" height="15"/>
</g>
<g>
	<rect x="555" y="15" class="st0" width="15" height="15"/>
</g>
<g>
	<rect x="555" y="45" class="st0" width="15" height="15"/>
</g>
<g>
	<rect x="555" y="75" class="st0" width="15" height="15"/>
</g>
<g>
	<rect x="555" y="105" class="st0" width="15" height="15"/>
</g>
<g>
	<rect x="555" y="135" class="st0" width="15" height="15"/>
</g>
<g>
	<rect x="555" y="165" class="st0" width="15" height="15"/>
</g>
<g>
	<rect x="555" y="195" class="st0" width="15" height="15"/>
</g>
<g>
	<rect x="555" y="225" class="st0" width="15" height="15"/>
</g>
<g>
	<rect x="555" y="255" class="st0" width="15" height="15"/>
</g>
<g>
	<rect x="555" y="285" class="st0" width="15" height="15"/>
</g>
<g>
	<rect x="570" class="st0" width="15" height="15"/>
</g>
<g>
	<rect x="570" y="30" class="st0" width="15" height="15"/>
</g>
<g>
	<rect x="570" y="60" class="st0" width="15" height="15"/>
</g>
<g>
	<rect x="570" y="90" class="st0" width="15" height="15"/>
</g>
<g>
	<rect x="570" y="120" class="st0" width="15" height="15"/>
</g>
<g>
	<rect x="570" y="150" class="st0" width="15" height="15"/>
</g>
<g>
	<rect x="570" y="180" class="st0" width="15" height="15"/>
</g>
<g>
	<rect x="570" y="210" class="st0" width="15" height="15"/>
</g>
<g>
	<rect x="570" y="240" class="st0" width="15" height="15"/>
</g>
<g>
	<rect x="570" y="270" class="st0" width="15" height="15"/>
</g>
<g>
	<rect x="585" y="15" class="st0" width="15" height="15"/>
</g>
<g>
	<rect x="585" y="45" class="st0" width="15" height="15"/>
</g>
<g>
	<rect x="585" y="75" class="st0" width="15" height="15"/>
</g>
<g>
	<rect x="585" y="105" class="st0" width="15" height="15"/>
</g>
<g>
	<rect x="585" y="135" class="st0" width="15" height="15"/>
</g>
<g>
	<rect x="585" y="165" class="st0" width="15" height="15"/>
</g>
<g>
	<rect x="585" y="195" class="st0" width="15" height="15"/>
</g>
<g>
	<rect x="585" y="225" class="st0" width="15" height="15"/>
</g>
<g>
	<rect x="585" y="255" class="st0" width="15" height="15"/>
</g>
<g>
	<rect x="585" y="285" class="st0" width="15" height="15"/>
</g>
</svg>
