<?xml version="1.0" encoding="utf-8"?>
<!-- Generator: Adobe Illustrator 24.1.2, SVG Export Plug-In . SVG Version: 6.00 Build 0)  -->
<svg version="1.1" id="Layer_1" xmlns="http://www.w3.org/2000/svg" xmlns:xlink="http://www.w3.org/1999/xlink" x="0px" y="0px"
	 viewBox="0 0 100 100" style="enable-background:new 0 0 100 100;" xml:space="preserve">
<style type="text/css">
	.st0{fill:#808080;}
</style>
<path class="st0" d="M23.4,30.8V78c0,5,4.5,9.1,10,9.1h32.9c5.5,0,10-4.1,10-9.1V30.8H23.4z M37.3,79c0,1-1.2,1.8-2.6,1.8
	c-1.4,0-2.6-0.8-2.6-1.8V40.9c0-0.9,1.1-1.7,2.6-1.7c1.4,0,2.6,0.8,2.6,1.8V79z M52.7,79c0,1-1.2,1.8-2.6,1.8
	c-1.4,0-2.6-0.8-2.6-1.8V40.9c0-0.9,1.2-1.7,2.6-1.7c1.4,0,2.6,0.8,2.6,1.8V79z M68.1,79c0,1-1.2,1.8-2.6,1.8S62.9,80,62.9,79V40.9
	c0-0.9,1.2-1.7,2.6-1.7s2.6,0.8,2.6,1.8V79z"/>
<path class="st0" d="M49.8,12.9c3.5,0,6.3,2.8,6.3,6.3s-2.8,6.3-6.3,6.3s-6.3-2.8-6.3-6.3C43.6,15.7,46.4,12.9,49.8,12.9z"/>
<path class="st0" d="M79.7,19.8H57.1c-0.3,3.8-3.4,6.7-7.3,6.7s-7-2.9-7.3-6.7H20.4c-2.7,0-4.9,2.2-4.9,4.9s2.2,4.9,4.9,4.9h59.2
	c2.8,0,5-2.2,5-4.9S82.4,19.8,79.7,19.8z"/>
</svg>
